<svg xmlns="http://www.w3.org/2000/svg" id="Camada_2" data-name="Camada 2" viewBox="0 0 729.74 856.72"><defs><style>.cls-2{fill-rule:evenodd;stroke-width:0;fill:#d5de23}</style></defs><g id="Camada_1-2" data-name="Camada 1"><path d="M.03 216.18 0 642.21l318.37 188.03c61.75 34.73 31.17 35.78 93.28.31 16.02-9.15 30.79-17.6 45.64-26.78 17.5-10.82 270.73-157.67 272.3-161.56l.16-428.8C623.27 152.63 517.45 87.4 410.55 25.45 402.46 20.76 370.49-.63 364.38.01c-3.52.37-165.14 96.18-182.79 106.76-29.77 17.85-60.62 36.22-91.16 53.74-7.2 4.14-88.01 49.28-90.4 55.67" style="fill-rule:evenodd;stroke-width:0;fill:#445c7e"/><path d="M484 261.46c54.39 30.79 108.92 61.67 118.72 65.05v103.58c4.72 2.34 10.02 4.86 15.02 7.33l8.53-.24c0-60.45-.29-115.97-1.2-119.05-2.63-8.92-73.43-44.95-85.64-51.61l-52.84-29.35c-.58 4.89-1.44 9.74-2.58 14.53v9.77ZM208.9 661.38l113.78 63.11c8.77 5.17 36.36 23.57 46.37 20.88l87.78-48.16c21.08-12.12 42.46-24.21 64.23-36.04-1.78-1.3-3.18-2.31-3.93-2.83-5.28-3.64-10.42-7.51-15.6-11.31-64.02 35.62-135.01 74.31-136.41 74.29-3.29-.04-107.41-58.32-119.5-65.29-2.57-1.48-7.69-4.3-14.42-7.96-7.75 4.63-15.44 9.23-22.29 13.3Zm27.65-420.65c-42.26 23.67-82 46.05-95.31 53.08-25.13 13.27-36.6 15.53-36.91 31.28-.1 4.99-.34 58.27-.42 116.54 8.31-4.09 16.63-8.17 23.54-11.56l.1-103.44c8.92-3.33 20.79-11.46 30.1-16.24 12.75-6.54 44.2-24.17 78.86-43.64l.02-26.01Z" class="cls-2"/><path d="M377.44 259.24v125.83c3.73-1.48 86.26-51.43 98.13-58.01l13.96-8.4.02-119.55c-2.35.61-36.58 19.25-41.91 22.09-4.75 2.53-9.34 5.03-14.12 7.53-9.18 4.8-18.54 10.3-28.15 15.06-2.05 1.02-26.98 13.62-27.93 15.44M235.37 306.73c22.48 16.76 46.69 33.68 69.6 50.5 4.57 3.35 9.13 6.77 13.9 10.06 4.01 2.77 26.19 19.3 28.2 20.26l.06-128.36c-2.11-1.82-10.37-5.96-13.74-7.78-5.12-2.77-9.37-5.3-14.09-7.77-12.94-6.79-28.61-15.81-41.87-23.21-4.65-2.59-9.6-5.04-14.04-7.77l-27.92-15.21-.1 109.29ZM363.36 111.08h-1.01c-1.42 1.37-23.27 11.78-26.87 13.64-8.73 4.51-80.64 39.27-81.95 41.05 1.07 1.01 4.95 3.15 6.59 4.09 2.41 1.39 4.3 2.62 6.72 3.97l27.49 16.31c4.71 2.82 9.03 5.16 13.74 8.15l27.18 16.14c3.2 1.82 26.42 16.11 27.62 16.1 1.65-.02 23.72-13.9 27.35-15.95l40.96-24.29c4.96-2.94 39.48-23.05 41.06-24.52-1.83-2.21-33.79-16.81-40.55-20.49-7.97-4.34-18.96-9.36-27.39-13.63-4.73-2.4-39.66-19.38-40.93-20.57M575.14 550.17V676c3.73-1.47 86.26-51.43 98.13-58.01l13.96-8.4.02-119.55c-2.35.61-36.58 19.25-41.91 22.09-4.75 2.53-9.34 5.03-14.12 7.53-9.18 4.8-18.54 10.3-28.15 15.06-2.05 1.02-26.98 13.62-27.93 15.44M433.08 597.67c22.48 16.76 46.69 33.68 69.6 50.5 4.57 3.35 9.13 6.77 13.9 10.06 4.01 2.77 26.19 19.3 28.2 20.26l.06-128.36c-2.11-1.82-10.37-5.96-13.74-7.78-5.12-2.77-9.37-5.3-14.09-7.77-12.94-6.79-28.61-15.81-41.87-23.21-4.65-2.59-9.6-5.04-14.04-7.77l-27.92-15.21-.1 109.29ZM561.06 402.01h-1.01c-1.42 1.37-23.27 11.78-26.87 13.64-8.73 4.51-80.64 39.27-81.95 41.05 1.07 1.01 4.95 3.15 6.59 4.09 2.41 1.39 4.3 2.62 6.72 3.97l27.49 16.31c4.71 2.82 9.02 5.16 13.74 8.15l27.17 16.14c3.2 1.82 26.42 16.11 27.62 16.1 1.65-.02 23.72-13.9 27.35-15.95l40.96-24.29c4.96-2.94 39.48-23.05 41.06-24.52-1.83-2.21-33.79-16.81-40.55-20.49-7.97-4.34-18.96-9.36-27.39-13.63-4.73-2.4-39.66-19.38-40.93-20.57M184.55 551.78v125.83c3.73-1.48 86.26-51.43 98.13-58.01l13.96-8.4.02-119.55c-2.35.61-36.58 19.25-41.91 22.09-4.75 2.53-9.34 5.03-14.12 7.53-9.18 4.8-18.54 10.3-28.15 15.06-2.05 1.02-26.98 13.62-27.93 15.44M42.49 599.27c22.48 16.76 46.69 33.68 69.6 50.5 4.57 3.35 9.13 6.77 13.9 10.06 4.01 2.77 26.19 19.3 28.2 20.26l.06-128.36c-2.11-1.82-10.37-5.96-13.74-7.78-5.12-2.77-9.37-5.3-14.09-7.77-12.94-6.79-28.61-15.81-41.87-23.21-4.65-2.59-9.6-5.04-14.04-7.77l-27.92-15.21-.1 109.29ZM170.47 403.62h-1.01c-1.42 1.37-23.27 11.78-26.87 13.64-8.73 4.51-80.64 39.27-81.95 41.05 1.07 1.01 4.95 3.15 6.59 4.09 2.41 1.39 4.3 2.62 6.72 3.97l27.49 16.31c4.71 2.82 9.03 5.16 13.74 8.15l27.17 16.14c3.2 1.82 26.42 16.11 27.62 16.1 1.65-.02 23.72-13.9 27.35-15.95l40.96-24.29c4.96-2.94 39.48-23.05 41.06-24.52-1.83-2.21-33.79-16.81-40.55-20.49-7.97-4.34-18.96-9.36-27.39-13.63-4.73-2.4-39.66-19.38-40.93-20.57" class="cls-2"/></g></svg>