<svg xmlns="http://www.w3.org/2000/svg" id="Camada_2" data-name="Camada 2" viewBox="0 0 649.09 623.05"><defs><style>.cls-2{fill-rule:evenodd;stroke-width:0}.cls-3{stroke-width:0;fill:#445c7e}.cls-2{fill:#d5de23}</style></defs><g id="Camada_1-2" data-name="Camada 1"><path d="M148.8 100.87v198.79l148.54 87.73c28.81 16.21 14.54 16.7 43.52.15 7.47-4.27 14.37-8.21 21.29-12.5 8.16-5.05 126.33-73.57 127.06-75.38l.07-200.08c-49.69-28.36-99.06-58.8-148.94-87.7C336.57 9.69 321.65-.29 318.8.01c-1.64.17-77.05 44.88-85.29 49.82-13.89 8.33-28.28 16.9-42.53 25.08-3.36 1.93-41.07 22.99-42.18 25.97" style="fill:#445c7e;stroke-width:0;fill-rule:evenodd"/><path d="M374.62 122c25.38 14.37 50.82 28.78 55.4 30.35v48.33c2.2 1.09 4.67 2.27 7.01 3.42l3.98-.11c0-28.21-.14-54.11-.56-55.55-1.23-4.16-34.26-20.97-39.96-24.08l-24.66-13.69c-.27 2.28-.67 4.55-1.21 6.78v4.56ZM246.26 308.6l53.09 29.45c4.09 2.41 16.96 11 21.63 9.74l40.96-22.47c9.84-5.66 19.81-11.3 29.97-16.82-.83-.61-1.49-1.08-1.84-1.32-2.46-1.7-4.86-3.51-7.28-5.28-29.87 16.62-63 34.67-63.65 34.67-1.54-.02-50.12-27.21-55.76-30.47-1.2-.69-3.59-2-6.73-3.72-3.62 2.16-7.21 4.31-10.4 6.21Zm12.9-196.28c-19.72 11.05-38.26 21.49-44.47 24.77-11.73 6.19-17.08 7.25-17.22 14.59-.05 2.33-.16 27.19-.19 54.38 3.88-1.91 7.76-3.81 10.99-5.39l.05-48.27c4.16-1.56 9.7-5.35 14.05-7.58 5.95-3.05 20.62-11.28 36.8-20.36v-12.14Z" class="cls-2"/><path d="M324.9 120.96v58.71c1.74-.69 40.25-24 45.79-27.07l6.52-3.92V92.9c-1.09.29-17.06 8.98-19.55 10.31-2.22 1.18-4.36 2.35-6.59 3.51-4.28 2.24-8.65 4.81-13.13 7.03-.96.47-12.59 6.35-13.03 7.21M258.61 143.12c10.49 7.82 21.78 15.71 32.48 23.56 2.13 1.56 4.26 3.16 6.49 4.69 1.87 1.29 12.22 9.01 13.16 9.45l.03-59.89c-.99-.85-4.84-2.78-6.41-3.63-2.39-1.29-4.37-2.47-6.58-3.63-6.04-3.17-13.35-7.38-19.54-10.83-2.17-1.21-4.48-2.35-6.55-3.63l-13.03-7.1-.05 50.99ZM318.33 51.83h-.47c-.66.64-10.86 5.5-12.54 6.36-4.07 2.1-37.63 18.32-38.24 19.16.5.47 2.31 1.47 3.07 1.91 1.12.65 2.01 1.22 3.13 1.85l12.83 7.61c2.2 1.31 4.21 2.41 6.41 3.8l12.68 7.53c1.49.85 12.33 7.52 12.89 7.51.77 0 11.07-6.49 12.76-7.44l19.11-11.33c2.31-1.37 18.42-10.75 19.16-11.44-.85-1.03-15.77-7.84-18.92-9.56-3.72-2.02-8.85-4.37-12.78-6.36-2.21-1.12-18.5-9.04-19.1-9.6M417.15 256.71v58.71c1.74-.69 40.25-24 45.79-27.07l6.52-3.92v-55.78c-1.09.29-17.06 8.98-19.55 10.31-2.22 1.18-4.36 2.35-6.59 3.51-4.28 2.24-8.65 4.81-13.13 7.03-.96.47-12.59 6.35-13.03 7.21M350.86 278.87c10.49 7.82 21.78 15.71 32.48 23.56 2.13 1.56 4.26 3.16 6.49 4.69 1.87 1.29 12.22 9.01 13.16 9.45l.03-59.89c-.99-.85-4.84-2.78-6.41-3.63-2.39-1.29-4.37-2.47-6.58-3.63-6.04-3.17-13.35-7.38-19.54-10.83-2.17-1.21-4.48-2.35-6.55-3.63l-13.03-7.1-.05 50.99ZM410.58 187.58h-.47c-.66.64-10.86 5.5-12.54 6.36-4.07 2.1-37.63 18.32-38.24 19.16.5.47 2.31 1.47 3.07 1.91 1.12.65 2.01 1.22 3.13 1.85l12.83 7.61c2.2 1.31 4.21 2.41 6.41 3.8l12.68 7.53c1.49.85 12.33 7.52 12.89 7.51.77 0 11.07-6.49 12.76-7.44l19.11-11.33c2.31-1.37 18.42-10.75 19.16-11.44-.85-1.03-15.77-7.84-18.92-9.56-3.72-2.02-8.85-4.37-12.78-6.36-2.21-1.12-18.5-9.04-19.1-9.6M234.9 257.46v58.71c1.74-.69 40.25-24 45.79-27.07l6.52-3.92V229.4c-1.09.29-17.06 8.98-19.55 10.31-2.22 1.18-4.36 2.35-6.59 3.51-4.28 2.24-8.65 4.81-13.13 7.03-.96.47-12.59 6.35-13.03 7.21M168.61 279.62c10.49 7.82 21.78 15.71 32.48 23.56 2.13 1.56 4.26 3.16 6.49 4.69 1.87 1.29 12.22 9.01 13.16 9.45l.03-59.89c-.99-.85-4.84-2.78-6.41-3.63-2.39-1.29-4.37-2.47-6.58-3.63-6.04-3.17-13.35-7.38-19.54-10.83-2.17-1.21-4.48-2.35-6.55-3.63l-13.03-7.1-.05 50.99ZM228.33 188.33h-.47c-.66.64-10.86 5.5-12.54 6.36-4.07 2.1-37.63 18.32-38.24 19.16.5.47 2.31 1.47 3.07 1.91 1.12.65 2.01 1.22 3.13 1.85l12.83 7.61c2.2 1.31 4.21 2.41 6.41 3.8l12.68 7.53c1.49.85 12.33 7.52 12.89 7.51.77 0 11.07-6.49 12.76-7.44l19.11-11.33c2.31-1.37 18.42-10.75 19.16-11.44-.85-1.03-15.77-7.84-18.92-9.56-3.72-2.02-8.85-4.37-12.78-6.36-2.21-1.12-18.5-9.04-19.1-9.6" class="cls-2"/><path d="m644.57 475.46-5.99 5.87c-4.32-4.38-9.06-7.71-14.2-9.97-5.15-2.27-10.17-3.4-15.07-3.4-6.08 0-11.87 1.54-17.36 4.62-5.51 3.08-9.77 7.26-12.79 12.55-3.03 5.27-4.54 10.84-4.54 16.73s1.56 11.73 4.68 17.18c3.12 5.42 7.44 9.67 12.95 12.77 5.52 3.1 11.55 4.66 18.11 4.66 7.96 0 14.71-2.32 20.21-6.94 5.51-4.62 8.77-10.64 9.79-18.01h-24.64v-7.8h33.36c-.07 12.35-3.62 22.17-10.65 29.43-7.05 7.26-16.45 10.9-28.25 10.9-14.31 0-25.65-5.03-34-15.11-6.42-7.76-9.63-16.73-9.63-26.92 0-7.56 1.85-14.61 5.52-21.15 3.69-6.52 8.75-11.62 15.17-15.3 6.44-3.68 13.7-5.51 21.81-5.51 6.56 0 12.75 1.23 18.54 3.66 5.79 2.45 11.46 6.35 16.97 11.75m-131.03-7.61c-5.7 0-11.12 1.54-16.25 4.62-5.11 3.08-9.11 7.22-12 12.44-2.87 5.24-4.3 11.05-4.3 17.47 0 9.49 3.17 17.51 9.54 24.05 6.37 6.55 14.04 9.82 23.01 9.82 6.01 0 11.55-1.5 16.64-4.51 5.11-3.01 9.09-7.13 11.94-12.35 2.85-5.22 4.29-11.01 4.29-17.4s-1.43-12.09-4.29-17.21c-2.85-5.12-6.89-9.23-12.07-12.31-5.18-3.08-10.69-4.62-16.52-4.62Zm-.34-7.8c11.69 0 21.49 4.05 29.36 12.12 7.87 8.08 11.82 18.03 11.82 29.84s-3.93 21.65-11.78 29.8c-7.87 8.15-17.45 12.24-28.77 12.24s-21.11-4.07-28.98-12.18c-7.87-8.11-11.82-17.94-11.82-29.47 0-7.69 1.79-14.8 5.38-21.37 3.59-6.55 8.48-11.7 14.69-15.41 6.19-3.71 12.89-5.57 20.1-5.57Zm-86.54 2.01h7.75v72.19h29.81v7.8h-37.56v-79.99Zm-109.28 79.99v-79.99h1.67l51.38 61.18v-61.18h7.75v79.99h-1.76l-51.08-60.64v60.64h-7.96Zm-25.5-79.99h7.75v79.99h-7.75v-79.99Zm-52.39 7.8v-7.8h42.29v7.8h-17.22v72.19h-7.86v-72.19h-17.22Zm-49.5 0v27.18l13.34.11c5.18 0 9-.5 11.48-1.52 2.47-1.02 4.41-2.64 5.81-4.86 1.38-2.23 2.08-4.72 2.08-7.48s-.7-5.12-2.12-7.32c-1.4-2.19-3.25-3.75-5.54-4.7-2.28-.95-6.08-1.41-11.39-1.41h-13.67Zm-7.75-7.8h15.42c8.59 0 14.42.37 17.47 1.1 4.61 1.08 8.34 3.4 11.21 6.98 2.89 3.57 4.32 7.97 4.32 13.18 0 4.34-.99 8.17-2.98 11.46-1.97 3.3-4.81 5.79-8.5 7.48-3.68 1.69-8.77 2.54-15.26 2.58l27.82 37.21h-9.49l-27.82-37.21h-4.45v37.21h-7.75v-79.99Zm-49.36 16.79-13.29 29.11h26.53l-13.24-29.11Zm.97-16.79 36.05 79.99h-8.3l-12.07-26.29h-33.48l-12 26.29h-8.61l36.48-79.99h1.94ZM0 542.04l10.71-79.99h1.6l31.44 65.62 31.24-65.62h1.17l11.12 79.99H79.8l-7.75-57.26-27.37 57.26h-2.03l-27.64-57.71-7.41 57.71H0ZM578.15 609.72l2.71-1.52c1.91 3.29 4.11 4.94 6.61 4.94 1.07 0 2.08-.23 3.02-.7.94-.46 1.66-1.09 2.14-1.87.5-.78.74-1.61.74-2.49 0-1-.36-1.97-1.09-2.93-1-1.32-2.82-2.92-5.47-4.78-2.66-1.88-4.32-3.24-4.97-4.07-1.13-1.4-1.69-2.92-1.69-4.56 0-1.29.33-2.47 1-3.54.67-1.06 1.6-1.9 2.82-2.52 1.21-.62 2.52-.92 3.94-.92 1.51 0 2.92.35 4.23 1.04 1.31.69 2.7 1.97 4.16 3.83l-2.6 1.85c-1.2-1.49-2.23-2.47-3.08-2.94-.85-.48-1.77-.71-2.77-.71-1.29 0-2.35.37-3.17 1.09-.82.73-1.23 1.62-1.23 2.7 0 .64.15 1.27.44 1.88.29.61.82 1.27 1.59 1.98.41.37 1.8 1.37 4.13 2.97 2.76 1.91 4.66 3.6 5.69 5.08 1.03 1.49 1.54 2.98 1.54 4.48 0 2.16-.88 4.04-2.63 5.63-1.76 1.6-3.9 2.39-6.41 2.39-1.94 0-3.7-.48-5.27-1.45-1.57-.97-3.03-2.59-4.36-4.87m-19.34-17.96-5.48 10.84h10.93l-5.46-10.84Zm.4-6.25 14.86 29.78h-3.42l-4.97-9.79h-13.8l-4.95 9.79h-3.55l15.03-29.78h.8Zm-21.88 5.5-2.51 1.8c-1.38-1.69-3.04-2.97-4.99-3.84-1.94-.87-4.07-1.31-6.39-1.31-2.54 0-4.89.57-7.05 1.71-2.17 1.14-3.84 2.68-5.03 4.6s-1.79 4.09-1.79 6.49c0 3.64 1.33 6.67 3.99 9.1 2.66 2.43 6.02 3.65 10.07 3.65 4.46 0 8.18-1.63 11.18-4.89l2.51 1.78c-1.59 1.89-3.57 3.35-5.94 4.38-2.37 1.03-5.03 1.55-7.95 1.55-5.57 0-9.97-1.74-13.19-5.21-2.7-2.92-4.05-6.46-4.05-10.6 0-4.36 1.63-8.03 4.9-11 3.27-2.98 7.37-4.47 12.29-4.47 2.97 0 5.65.55 8.05 1.64 2.4 1.1 4.36 2.63 5.89 4.6Zm-42.59-5.5h3.19v29.78h-3.19V585.5Zm-24.05 2.9v-2.9h17.43v2.9h-7.1v26.88h-3.24V588.4h-7.1Zm-24.67 21.31 2.71-1.52c1.91 3.29 4.11 4.94 6.61 4.94 1.07 0 2.08-.23 3.02-.7.94-.46 1.66-1.09 2.14-1.87.5-.78.74-1.61.74-2.49 0-1-.36-1.97-1.09-2.93-1-1.32-2.82-2.92-5.47-4.78-2.66-1.88-4.32-3.24-4.97-4.07-1.13-1.4-1.69-2.92-1.69-4.56 0-1.29.33-2.47 1-3.54.67-1.06 1.6-1.9 2.82-2.52 1.21-.62 2.52-.92 3.94-.92 1.51 0 2.92.35 4.23 1.04 1.31.69 2.7 1.97 4.16 3.83l-2.6 1.85c-1.2-1.49-2.23-2.47-3.08-2.94-.85-.48-1.77-.71-2.77-.71-1.29 0-2.35.37-3.17 1.09-.82.73-1.23 1.62-1.23 2.7 0 .64.15 1.27.44 1.88.29.61.82 1.27 1.59 1.98.41.37 1.8 1.37 4.13 2.97 2.76 1.91 4.66 3.6 5.69 5.08 1.03 1.49 1.54 2.98 1.54 4.48 0 2.16-.88 4.04-2.63 5.63-1.76 1.6-3.9 2.39-6.41 2.39-1.94 0-3.7-.48-5.27-1.45-1.57-.97-3.03-2.59-4.36-4.87Zm-6.57-32.8h4.65l-6.37 6.22h-2.99l4.71-6.22Zm-3.07 8.59h3.19v29.78h-3.19V585.5Zm-9.91 4.99-2.47 2.18c-1.78-1.63-3.73-2.87-5.85-3.71-2.12-.84-4.19-1.27-6.21-1.27-2.51 0-4.89.57-7.15 1.72-2.27 1.15-4.03 2.7-5.27 4.67-1.25 1.96-1.87 4.04-1.87 6.23s.64 4.37 1.93 6.39c1.29 2.02 3.07 3.6 5.34 4.76 2.28 1.15 4.76 1.74 7.47 1.74 3.28 0 6.06-.86 8.33-2.59 2.27-1.72 3.61-3.96 4.04-6.71h-10.16V601h13.75c-.03 4.6-1.49 8.25-4.39 10.96-2.9 2.7-6.78 4.06-11.64 4.06-5.9 0-10.57-1.87-14.01-5.63-2.65-2.89-3.97-6.23-3.97-10.02 0-2.81.76-5.44 2.28-7.87 1.52-2.43 3.61-4.33 6.25-5.7 2.65-1.37 5.65-2.05 8.99-2.05 2.71 0 5.26.46 7.64 1.36 2.39.91 4.72 2.36 6.99 4.38Zm-56.46-2.83c-2.35 0-4.58.57-6.7 1.72-2.11 1.15-3.75 2.69-4.94 4.63-1.18 1.95-1.77 4.11-1.77 6.51 0 3.53 1.31 6.52 3.93 8.95 2.62 2.44 5.79 3.66 9.48 3.66 2.48 0 4.76-.56 6.86-1.68 2.11-1.12 3.75-2.65 4.92-4.6 1.18-1.94 1.77-4.1 1.77-6.48s-.59-4.5-1.77-6.41c-1.18-1.91-2.84-3.44-4.97-4.58-2.14-1.15-4.4-1.72-6.81-1.72Zm-.14-2.9c4.82 0 8.85 1.51 12.1 4.51 3.24 3.01 4.87 6.71 4.87 11.11s-1.62 8.06-4.86 11.1c-3.24 3.04-7.19 4.56-11.86 4.56s-8.7-1.51-11.94-4.54c-3.24-3.02-4.87-6.68-4.87-10.97 0-2.86.74-5.51 2.22-7.96 1.48-2.44 3.5-4.36 6.05-5.74s5.31-2.07 8.29-2.07Zm-38.12.75h3.19v26.88h12.28v2.9h-15.48v-29.78Zm-49.92 24.21 2.71-1.52c1.91 3.29 4.11 4.94 6.61 4.94 1.07 0 2.08-.23 3.02-.7.94-.46 1.66-1.09 2.14-1.87.5-.78.74-1.61.74-2.49 0-1-.36-1.97-1.09-2.93-1-1.32-2.82-2.92-5.47-4.78-2.66-1.88-4.32-3.24-4.97-4.07-1.13-1.4-1.69-2.92-1.69-4.56 0-1.29.33-2.47 1-3.54.67-1.06 1.6-1.9 2.82-2.52 1.21-.62 2.52-.92 3.94-.92 1.51 0 2.92.35 4.23 1.04 1.31.69 2.7 1.97 4.16 3.83l-2.6 1.85c-1.21-1.49-2.23-2.47-3.08-2.94-.85-.48-1.77-.71-2.77-.71-1.29 0-2.35.37-3.17 1.09-.82.73-1.23 1.62-1.23 2.7 0 .64.15 1.27.44 1.88.29.61.82 1.27 1.59 1.98.41.37 1.8 1.37 4.13 2.97 2.76 1.91 4.66 3.6 5.69 5.08 1.03 1.49 1.54 2.98 1.54 4.48 0 2.16-.88 4.04-2.63 5.63-1.76 1.6-3.9 2.39-6.41 2.39-1.94 0-3.7-.48-5.27-1.45-1.57-.97-3.03-2.59-4.36-4.87Zm-22.91-24.21h18.23v2.9h-15.03v9.33h14.9v2.9h-14.9v11.74h14.9v2.9h-18.09V585.5Zm-19.23-6.47 1.52 1.96c-1.04.71-1.91 1.2-2.63 1.44-.72.25-1.47.37-2.26.37-1.04 0-2.11-.26-3.21-.76-.94-.44-1.54-.68-1.8-.75-.35-.1-.72-.15-1.13-.15-.5 0-.98.09-1.44.26-.45.17-1.11.57-1.98 1.19l-1.43-2.07c1.32-1.36 2.94-2.04 4.87-2.04.92 0 2.03.28 3.32.84 1.23.55 2.19.82 2.9.82.8 0 1.88-.37 3.27-1.12Zm-6.49 8.63c-2.35 0-4.58.57-6.7 1.72-2.11 1.15-3.75 2.69-4.94 4.63-1.18 1.95-1.77 4.11-1.77 6.51 0 3.53 1.31 6.52 3.93 8.95 2.62 2.44 5.79 3.66 9.48 3.66 2.48 0 4.76-.56 6.86-1.68 2.11-1.12 3.75-2.65 4.92-4.6 1.18-1.94 1.77-4.1 1.77-6.48s-.59-4.5-1.77-6.41c-1.18-1.91-2.84-3.44-4.97-4.58-2.14-1.15-4.4-1.72-6.81-1.72Zm-.14-2.9c4.82 0 8.85 1.51 12.1 4.51 3.24 3.01 4.87 6.71 4.87 11.11s-1.62 8.06-4.86 11.1c-3.24 3.04-7.19 4.56-11.86 4.56s-8.7-1.51-11.94-4.54c-3.24-3.02-4.87-6.68-4.87-10.97 0-2.86.74-5.51 2.22-7.96 1.48-2.44 3.5-4.36 6.05-5.74s5.31-2.07 8.29-2.07Zm-40.03 30.53h1.91l-.37 2.43c.33-.04.61-.06.82-.06.7 0 1.29.21 1.77.62.47.41.71.93.71 1.56 0 .89-.43 1.65-1.29 2.28-.86.62-2.08.93-3.66.93-1.28 0-2.48-.2-3.61-.61l.47-1.42c.92.27 1.79.41 2.59.41 1.08 0 1.84-.12 2.27-.37.44-.26.65-.57.65-.95 0-.24-.12-.44-.35-.62-.24-.17-.56-.26-.98-.26-.34 0-.84.06-1.51.18l.58-4.12Zm16.01-24.29-2.51 1.8a13.515 13.515 0 0 0-4.99-3.84c-1.94-.87-4.07-1.31-6.39-1.31-2.54 0-4.89.57-7.05 1.71-2.17 1.14-3.84 2.68-5.03 4.6-1.19 1.92-1.79 4.09-1.79 6.49 0 3.64 1.33 6.67 3.99 9.1 2.66 2.43 6.02 3.65 10.07 3.65 4.46 0 8.18-1.63 11.18-4.89l2.51 1.78c-1.59 1.89-3.57 3.35-5.94 4.38-2.37 1.03-5.03 1.55-7.95 1.55-5.57 0-9.97-1.74-13.19-5.21-2.7-2.92-4.05-6.46-4.05-10.6 0-4.36 1.63-8.03 4.9-11 3.27-2.98 7.37-4.47 12.29-4.47 2.97 0 5.65.55 8.05 1.64 2.39 1.1 4.36 2.63 5.89 4.6Zm-61.03-5.5h3.19v17.99c0 2.13.04 3.46.13 3.99.15 1.18.53 2.16 1.1 2.94.58.79 1.46 1.45 2.66 1.98 1.2.53 2.4.8 3.62.8 1.05 0 2.06-.21 3.03-.63.96-.41 1.77-1 2.42-1.74.65-.74 1.12-1.64 1.43-2.69.21-.76.33-2.31.33-4.66V585.5h3.19v17.97c0 2.66-.28 4.81-.83 6.45-.55 1.64-1.67 3.07-3.33 4.28-1.67 1.22-3.69 1.83-6.06 1.83-2.57 0-4.77-.57-6.61-1.72-1.84-1.15-3.07-2.66-3.69-4.56-.39-1.16-.58-3.25-.58-6.28V585.5Zm-23.07 0h3.19v26.88h12.28v2.9h-15.48v-29.78Zm-25.68 2.16c-2.35 0-4.58.57-6.7 1.72-2.11 1.15-3.76 2.69-4.94 4.63-1.18 1.95-1.77 4.11-1.77 6.51 0 3.53 1.31 6.52 3.93 8.95 2.62 2.44 5.79 3.66 9.48 3.66 2.48 0 4.76-.56 6.86-1.68 2.11-1.12 3.75-2.65 4.92-4.6 1.18-1.94 1.77-4.1 1.77-6.48s-.59-4.5-1.77-6.41c-1.17-1.91-2.84-3.44-4.97-4.58a14.173 14.173 0 0 0-6.81-1.72Zm-.14-2.9c4.82 0 8.85 1.51 12.1 4.51 3.24 3.01 4.87 6.71 4.87 11.11s-1.62 8.06-4.86 11.1c-3.24 3.04-7.19 4.56-11.85 4.56s-8.7-1.51-11.94-4.54c-3.24-3.02-4.87-6.68-4.87-10.97 0-2.86.74-5.51 2.22-7.96 1.48-2.44 3.5-4.36 6.05-5.74s5.31-2.07 8.29-2.07Zm-43 24.96 2.71-1.52c1.91 3.29 4.11 4.94 6.61 4.94 1.07 0 2.08-.23 3.02-.7.94-.46 1.66-1.09 2.14-1.87.5-.78.74-1.61.74-2.49 0-1-.36-1.97-1.09-2.93-1-1.32-2.82-2.92-5.47-4.78-2.66-1.88-4.32-3.24-4.97-4.07-1.13-1.4-1.69-2.92-1.69-4.56 0-1.29.33-2.47 1-3.54.66-1.06 1.6-1.9 2.82-2.52 1.21-.62 2.52-.92 3.94-.92 1.51 0 2.92.35 4.23 1.04 1.31.69 2.7 1.97 4.16 3.83l-2.6 1.85c-1.21-1.49-2.23-2.47-3.08-2.94-.85-.48-1.77-.71-2.77-.71-1.29 0-2.35.37-3.17 1.09-.82.73-1.23 1.62-1.23 2.7 0 .64.15 1.27.44 1.88.29.61.82 1.27 1.59 1.98.41.37 1.8 1.37 4.13 2.97 2.76 1.91 4.66 3.6 5.69 5.08 1.03 1.49 1.54 2.98 1.54 4.48 0 2.16-.88 4.04-2.63 5.63-1.76 1.6-3.9 2.39-6.41 2.39-1.94 0-3.7-.48-5.27-1.45-1.57-.97-3.03-2.59-4.36-4.87Z" class="cls-3"/></g></svg>